{"accessors" : [{"bufferView" : 0, "byteOffset" : 0, "componentType" : 5126, "normalized" : false, "count" : 30, "type" : "SCALAR", "max" : [0.9666666666666667], "min" : [0]}, {"bufferView" : 0, "byteOffset" : 120, "componentType" : 5126, "normalized" : false, "count" : 30, "type" : "VEC3", "max" : [4.2897868156433105, 81.35914611816406, 126.93296813964844], "min" : [0.08920624852180481, 78.05393981933594, 0.36488109827041626]}], "animations" : [{"channels" : [{"sampler" : 0, "target" : {"node" : -1, "path" : "translation"}}], "samplers" : [{"input" : 0, "interpolation" : "CUBICSPLINE", "output" : 1}], "name" : "mixamo.com"}], "asset" : {"generator" : "Aspose.3D 24.9.1", "version" : "2.0"}, "buffers" : [{"uri" : "data:application/octet-stream;base64,", "byteLength" : 484}], "bufferViews" : [{"buffer" : 0, "byteOffset" : 0, "byteLength" : 480}], "scene" : 0, "scenes" : [{}]}